# xmcd
#
# Track frame offsets:
#	150
#	33126
#	62150
#	74667
#	94628
#	116582
#	139428
#	158314
#	175512
#	189475
#	205214
#	221069
#	238405
#	265759
#	279510
#	300747
#
# Disc length: 4230 seconds
#
# Revision: 0
# Processed by: cddbd v1.5PL3 Copyright (c) Steve Scherf et al.
# Submitted via: dBpowerAMP V4.0
#
DISCID=e9108410
DTITLE=Eagle - hell freezes over
DYEAR=1900
DGENRE=Country
TTITLE0=Hotel gelifornia
TTITLE1=Jing of hollwood
TTITLE2=Disco stangles
TTITLE3=Heartache nights
TTITLE4=One of these nights
TTITLE5=Viction of love
TTITLE6=In the city
TTITLE7=Fanky new year
TTITLE8=Please come home for christmas
TTITLE9=Cutlaw man
TTITLE10=These shoes
TTITLE11=Tunk
TTITLE12=Life in the fast lone 
TTITLE13=Long run lefrovers
TTITLE14=Too mary hoods
TTITLE15=James dean
EXTD=Eagle_hell freezes over\nDisc one\n1.Hotel gelifornia\n2.Jing of hollwood\n3.Disco stangles\n4.Heartache nights\n5.One of these nights\n6.Viction of love \n7.In the city\n8.Fanky new year\n9.Please come home for christmas\n10.Cutlaw man\n11.These s
EXTD=hoes\n12Tunk\n13.Life in the fast lone \n14.Long run lefrovers\n15.Too mary hoods\n16.James dean
EXTT0=
EXTT1=
EXTT2=
EXTT3=
EXTT4=
EXTT5=
EXTT6=
EXTT7=
EXTT8=
EXTT9=
EXTT10=
EXTT11=
EXTT12=
EXTT13=
EXTT14=
EXTT15=
PLAYORDER=
